<svg version="1.1" preserveAspectRatio="none" xmlns="http://www.w3.org/2000/svg" width="500" height="500" viewBox="0 0 500 500"><rect width="100%" height="100%" fill="#F3D548" fill-opacity="1"/><svg viewBox="-6.1188 78.1007 345.5714 89" width="333" height="85.76230556116623" x="83.5px" y="207.1188px" xmlns="http://www.w3.org/2000/svg" xmlns:xlink="http://www.w3.org/1999/xlink" preserveAspectRatio="none"><defs></defs><style>.companyName {fill:#25271C;fill-opacity:1;}.icon3-str {stroke:#E13737;stroke-opacity:1;}.text {fill:#25271C;fill-opacity:1;}</style><g opacity="1" transform="rotate(0 39.2373 152.1007)">
<svg width="254.8592" height="15" x="39.2373" y="152.1007" version="1.1" preserveAspectRatio="none" viewBox="0.08 -29.88 639.36 37.64">
  <g transform="matrix(1 0 0 1 0 0)" class="text"><path id="id-6izo4zJp29" d="M25.48 0L22.12-7.48L6.52-7.48L3.16 0L0.08 0L12.88-28L15.80-28L28.60 0L25.48 0ZM7.60-9.88L21.04-9.88L14.32-24.92L7.60-9.88Z M57.96-21.20Q60.92-21.20 63.32-19.86Q65.72-18.52 67.08-16.08Q68.44-13.64 68.44-10.52L68.44-10.52Q68.44-7.36 67.08-4.92Q65.72-2.48 63.34-1.14Q60.96 0.20 57.96 0.20L57.96 0.20Q55.40 0.20 53.34-0.86Q51.28-1.92 49.96-3.96L49.96-3.96L49.96 7.76L47.12 7.76L47.12-21.04L49.84-21.04L49.84-16.88Q51.12-18.96 53.22-20.08Q55.32-21.20 57.96-21.20L57.96-21.20ZM57.76-2.32Q59.96-2.32 61.76-3.34Q63.56-4.36 64.58-6.24Q65.60-8.12 65.60-10.52L65.60-10.52Q65.60-12.92 64.58-14.78Q63.56-16.64 61.76-17.68Q59.96-18.72 57.76-18.72L57.76-18.72Q55.52-18.72 53.74-17.68Q51.96-16.64 50.94-14.78Q49.92-12.92 49.92-10.52L49.92-10.52Q49.92-8.12 50.94-6.24Q51.96-4.36 53.74-3.34Q55.52-2.32 57.76-2.32L57.76-2.32Z M83.48-21.20Q87.60-21.20 89.80-19.14Q92-17.08 92-13.04L92-13.04L92 0L89.28 0L89.28-3.28Q88.32-1.64 86.46-0.72Q84.60 0.20 82.04 0.20L82.04 0.20Q78.52 0.20 76.44-1.48Q74.36-3.16 74.36-5.92L74.36-5.92Q74.36-8.60 76.30-10.24Q78.24-11.88 82.48-11.88L82.48-11.88L89.16-11.88L89.16-13.16Q89.16-15.88 87.64-17.30Q86.12-18.72 83.20-18.72L83.20-18.72Q81.20-18.72 79.36-18.06Q77.52-17.40 76.20-16.24L76.20-16.24L74.92-18.36Q76.52-19.72 78.76-20.46Q81-21.20 83.48-21.20L83.48-21.20ZM82.48-2.04Q84.88-2.04 86.60-3.14Q88.32-4.24 89.16-6.32L89.16-6.32L89.16-9.76L82.56-9.76Q77.16-9.76 77.16-6L77.16-6Q77.16-4.16 78.56-3.10Q79.96-2.04 82.48-2.04L82.48-2.04Z M111.80-3.32L112.80-1.28Q112.00-0.56 110.82-0.18Q109.64 0.20 108.36 0.20L108.36 0.20Q105.40 0.20 103.80-1.40Q102.20-3 102.20-5.92L102.20-5.92L102.20-18.64L98.44-18.64L98.44-21.04L102.20-21.04L102.20-25.64L105.04-25.64L105.04-21.04L111.44-21.04L111.44-18.64L105.04-18.64L105.04-6.08Q105.04-4.20 105.98-3.22Q106.92-2.24 108.68-2.24L108.68-2.24Q109.56-2.24 110.38-2.52Q111.20-2.80 111.80-3.32L111.80-3.32Z M130.68-21.20Q134.64-21.20 136.98-18.90Q139.32-16.60 139.32-12.20L139.32-12.20L139.32 0L136.48 0L136.48-11.92Q136.48-15.20 134.84-16.92Q133.20-18.64 130.16-18.64L130.16-18.64Q126.76-18.64 124.78-16.62Q122.80-14.60 122.80-11.04L122.80-11.04L122.80 0L119.96 0L119.96-29.68L122.80-29.68L122.80-17.36Q123.96-19.20 126-20.20Q128.04-21.20 130.68-21.20L130.68-21.20Z M171.60-3.32L172.60-1.28Q171.80-0.56 170.62-0.18Q169.44 0.20 168.16 0.20L168.16 0.20Q165.20 0.20 163.60-1.40Q162-3 162-5.92L162-5.92L162-18.64L158.24-18.64L158.24-21.04L162-21.04L162-25.64L164.84-25.64L164.84-21.04L171.24-21.04L171.24-18.64L164.84-18.64L164.84-6.08Q164.84-4.20 165.78-3.22Q166.72-2.24 168.48-2.24L168.48-2.24Q169.36-2.24 170.18-2.52Q171-2.80 171.60-3.32L171.60-3.32Z M187.60 0.20Q184.56 0.20 182.12-1.18Q179.68-2.56 178.28-5Q176.88-7.44 176.88-10.52L176.88-10.52Q176.88-13.60 178.28-16.04Q179.68-18.48 182.12-19.84Q184.56-21.20 187.60-21.20L187.60-21.20Q190.64-21.20 193.08-19.84Q195.52-18.48 196.90-16.04Q198.28-13.60 198.28-10.52L198.28-10.52Q198.28-7.44 196.90-5Q195.52-2.56 193.08-1.18Q190.64 0.20 187.60 0.20L187.60 0.20ZM187.60-2.32Q189.84-2.32 191.62-3.34Q193.40-4.36 194.40-6.24Q195.40-8.12 195.40-10.52L195.40-10.52Q195.40-12.92 194.40-14.80Q193.40-16.68 191.62-17.70Q189.84-18.72 187.60-18.72L187.60-18.72Q185.36-18.72 183.58-17.70Q181.80-16.68 180.78-14.80Q179.76-12.92 179.76-10.52L179.76-10.52Q179.76-8.12 180.78-6.24Q181.80-4.36 183.58-3.34Q185.36-2.32 187.60-2.32L187.60-2.32Z M233.76-21.04L236.36-21.04L228.40 0L225.72 0L219.08-17.24L212.44 0L209.76 0L201.84-21.04L204.56-21.04L211.16-3.16L217.92-21.04L220.36-21.04L227.08-3.16L233.76-21.04Z M249.36-21.20Q253.48-21.20 255.68-19.14Q257.88-17.08 257.88-13.04L257.88-13.04L257.88 0L255.16 0L255.16-3.28Q254.20-1.64 252.34-0.72Q250.48 0.20 247.92 0.20L247.92 0.20Q244.40 0.20 242.32-1.48Q240.24-3.16 240.24-5.92L240.24-5.92Q240.24-8.60 242.18-10.24Q244.12-11.88 248.36-11.88L248.36-11.88L255.04-11.88L255.04-13.16Q255.04-15.88 253.52-17.30Q252.00-18.72 249.08-18.72L249.08-18.72Q247.08-18.72 245.24-18.06Q243.40-17.40 242.08-16.24L242.08-16.24L240.80-18.36Q242.40-19.72 244.64-20.46Q246.88-21.20 249.36-21.20L249.36-21.20ZM248.36-2.04Q250.76-2.04 252.48-3.14Q254.20-4.24 255.04-6.32L255.04-6.32L255.04-9.76L248.44-9.76Q243.04-9.76 243.04-6L243.04-6Q243.04-4.16 244.44-3.10Q245.84-2.04 248.36-2.04L248.36-2.04Z M270.32-16.92Q271.32-19.04 273.30-20.12Q275.28-21.20 278.20-21.20L278.20-21.20L278.20-18.44L277.52-18.48Q274.20-18.48 272.32-16.44Q270.44-14.40 270.44-10.72L270.44-10.72L270.44 0L267.60 0L267.60-21.04L270.32-21.04L270.32-16.92Z M301.48-29.68L304.32-29.68L304.32 0L301.60 0L301.60-4.16Q300.32-2.04 298.22-0.92Q296.12 0.20 293.48 0.20L293.48 0.20Q290.52 0.20 288.12-1.16Q285.72-2.52 284.36-4.96Q283.00-7.40 283.00-10.52L283.00-10.52Q283.00-13.64 284.36-16.08Q285.72-18.52 288.12-19.86Q290.52-21.20 293.48-21.20L293.48-21.20Q296.04-21.20 298.10-20.14Q300.16-19.08 301.48-17.04L301.48-17.04L301.48-29.68ZM293.72-2.32Q295.92-2.32 297.70-3.34Q299.48-4.36 300.50-6.24Q301.52-8.12 301.52-10.52L301.52-10.52Q301.52-12.92 300.50-14.80Q299.48-16.68 297.70-17.70Q295.92-18.72 293.72-18.72L293.72-18.72Q291.48-18.72 289.70-17.70Q287.92-16.68 286.90-14.80Q285.88-12.92 285.88-10.52L285.88-10.52Q285.88-8.12 286.90-6.24Q287.92-4.36 289.70-3.34Q291.48-2.32 293.72-2.32L293.72-2.32Z M334.08-21.20Q338.20-21.20 340.40-19.14Q342.60-17.08 342.60-13.04L342.60-13.04L342.60 0L339.88 0L339.88-3.28Q338.92-1.64 337.06-0.72Q335.20 0.20 332.64 0.20L332.64 0.20Q329.12 0.20 327.04-1.48Q324.96-3.16 324.96-5.92L324.96-5.92Q324.96-8.60 326.90-10.24Q328.84-11.88 333.08-11.88L333.08-11.88L339.76-11.88L339.76-13.16Q339.76-15.88 338.24-17.30Q336.72-18.72 333.80-18.72L333.80-18.72Q331.80-18.72 329.96-18.06Q328.12-17.40 326.80-16.24L326.80-16.24L325.52-18.36Q327.12-19.72 329.36-20.46Q331.60-21.20 334.08-21.20L334.08-21.20ZM333.08-2.04Q335.48-2.04 337.20-3.14Q338.92-4.24 339.76-6.32L339.76-6.32L339.76-9.76L333.16-9.76Q327.76-9.76 327.76-6L327.76-6Q327.76-4.16 329.16-3.10Q330.56-2.04 333.08-2.04L333.08-2.04Z M375.64-21.20Q378.60-21.20 381.00-19.86Q383.40-18.52 384.76-16.08Q386.12-13.64 386.12-10.52L386.12-10.52Q386.12-7.40 384.76-4.96Q383.40-2.52 381.00-1.16Q378.60 0.20 375.64 0.20L375.64 0.20Q373.00 0.20 370.90-0.92Q368.80-2.04 367.52-4.16L367.52-4.16L367.52 0L364.80 0L364.80-29.68L367.64-29.68L367.64-17.04Q368.96-19.08 371.02-20.14Q373.08-21.20 375.64-21.20L375.64-21.20ZM375.44-2.32Q377.64-2.32 379.44-3.34Q381.24-4.36 382.26-6.24Q383.28-8.12 383.28-10.52L383.28-10.52Q383.28-12.92 382.26-14.80Q381.24-16.68 379.44-17.70Q377.64-18.72 375.44-18.72L375.44-18.72Q373.20-18.72 371.42-17.70Q369.64-16.68 368.62-14.80Q367.60-12.92 367.60-10.52L367.60-10.52Q367.60-8.12 368.62-6.24Q369.64-4.36 371.42-3.34Q373.20-2.32 375.44-2.32L375.44-2.32Z M412.28-10.52L412.24-9.64L394.64-9.64Q394.88-6.36 397.16-4.34Q399.44-2.32 402.92-2.32L402.92-2.32Q404.88-2.32 406.52-3.02Q408.16-3.72 409.36-5.08L409.36-5.08L410.96-3.24Q409.56-1.56 407.46-0.68Q405.36 0.20 402.84 0.20L402.84 0.20Q399.60 0.20 397.10-1.18Q394.60-2.56 393.20-5Q391.80-7.44 391.80-10.52L391.80-10.52Q391.80-13.60 393.14-16.04Q394.48-18.48 396.82-19.84Q399.16-21.20 402.08-21.20L402.08-21.20Q405.00-21.20 407.32-19.84Q409.64-18.48 410.96-16.06Q412.28-13.64 412.28-10.52L412.28-10.52ZM402.08-18.76Q399.04-18.76 396.98-16.82Q394.92-14.88 394.64-11.76L394.64-11.76L409.56-11.76Q409.28-14.88 407.22-16.82Q405.16-18.76 402.08-18.76L402.08-18.76Z M430.16-3.32L431.16-1.28Q430.36-0.56 429.18-0.18Q428.00 0.20 426.72 0.20L426.72 0.20Q423.76 0.20 422.16-1.40Q420.56-3 420.56-5.92L420.56-5.92L420.56-18.64L416.80-18.64L416.80-21.04L420.56-21.04L420.56-25.64L423.40-25.64L423.40-21.04L429.80-21.04L429.80-18.64L423.40-18.64L423.40-6.08Q423.40-4.20 424.34-3.22Q425.28-2.24 427.04-2.24L427.04-2.24Q427.92-2.24 428.74-2.52Q429.56-2.80 430.16-3.32L430.16-3.32Z M447.84-3.32L448.84-1.28Q448.04-0.56 446.86-0.18Q445.68 0.20 444.40 0.20L444.40 0.20Q441.44 0.20 439.84-1.40Q438.24-3 438.24-5.92L438.24-5.92L438.24-18.64L434.48-18.64L434.48-21.04L438.24-21.04L438.24-25.64L441.08-25.64L441.08-21.04L447.48-21.04L447.48-18.64L441.08-18.64L441.08-6.08Q441.08-4.20 442.02-3.22Q442.96-2.24 444.72-2.24L444.72-2.24Q445.60-2.24 446.42-2.52Q447.24-2.80 447.84-3.32L447.84-3.32Z M473.60-10.52L473.56-9.64L455.96-9.64Q456.20-6.36 458.48-4.34Q460.76-2.32 464.24-2.32L464.24-2.32Q466.20-2.32 467.84-3.02Q469.48-3.72 470.68-5.08L470.68-5.08L472.28-3.24Q470.88-1.56 468.78-0.68Q466.68 0.20 464.16 0.20L464.16 0.20Q460.92 0.20 458.42-1.18Q455.92-2.56 454.52-5Q453.12-7.44 453.12-10.52L453.12-10.52Q453.12-13.60 454.46-16.04Q455.80-18.48 458.14-19.84Q460.48-21.20 463.40-21.20L463.40-21.20Q466.32-21.20 468.64-19.84Q470.96-18.48 472.28-16.06Q473.60-13.64 473.60-10.52L473.60-10.52ZM463.40-18.76Q460.36-18.76 458.30-16.82Q456.24-14.88 455.96-11.76L455.96-11.76L470.88-11.76Q470.60-14.88 468.54-16.82Q466.48-18.76 463.40-18.76L463.40-18.76Z M484.12-16.92Q485.12-19.04 487.10-20.12Q489.08-21.20 492.00-21.20L492.00-21.20L492.00-18.44L491.32-18.48Q488.00-18.48 486.12-16.44Q484.24-14.40 484.24-10.72L484.24-10.72L484.24 0L481.40 0L481.40-21.04L484.12-21.04L484.12-16.92Z M518.88-27.48Q517.04-27.48 516.10-26.48Q515.16-25.48 515.16-23.52L515.16-23.52L515.16-21.04L521.64-21.04L521.64-18.64L515.24-18.64L515.24 0L512.40 0L512.40-18.64L508.64-18.64L508.64-21.04L512.40-21.04L512.40-23.64Q512.40-26.52 514.06-28.20Q515.72-29.88 518.76-29.88L518.76-29.88Q519.96-29.88 521.08-29.54Q522.20-29.20 522.96-28.56L522.96-28.56L522.00-26.44Q520.76-27.48 518.88-27.48L518.88-27.48Z M543.60-21.04L546.44-21.04L546.44 0L543.72 0L543.72-3.84Q542.60-1.92 540.64-0.86Q538.68 0.20 536.16 0.20L536.16 0.20Q532.04 0.20 529.66-2.10Q527.28-4.40 527.28-8.84L527.28-8.84L527.28-21.04L530.12-21.04L530.12-9.12Q530.12-5.80 531.76-4.08Q533.40-2.36 536.44-2.36L536.44-2.36Q539.76-2.36 541.68-4.38Q543.60-6.40 543.60-10L543.60-10L543.60-21.04Z M566.48-3.32L567.48-1.28Q566.68-0.56 565.50-0.18Q564.32 0.20 563.04 0.20L563.04 0.20Q560.08 0.20 558.48-1.40Q556.88-3 556.88-5.92L556.88-5.92L556.88-18.64L553.12-18.64L553.12-21.04L556.88-21.04L556.88-25.64L559.72-25.64L559.72-21.04L566.12-21.04L566.12-18.64L559.72-18.64L559.72-6.08Q559.72-4.20 560.66-3.22Q561.60-2.24 563.36-2.24L563.36-2.24Q564.24-2.24 565.06-2.52Q565.88-2.80 566.48-3.32L566.48-3.32Z M590.76-21.04L593.60-21.04L593.60 0L590.88 0L590.88-3.84Q589.76-1.92 587.80-0.86Q585.84 0.20 583.32 0.20L583.32 0.20Q579.20 0.20 576.82-2.10Q574.44-4.40 574.44-8.84L574.44-8.84L574.44-21.04L577.28-21.04L577.28-9.12Q577.28-5.80 578.92-4.08Q580.56-2.36 583.60-2.36L583.60-2.36Q586.92-2.36 588.84-4.38Q590.76-6.40 590.76-10L590.76-10L590.76-21.04Z M606.28-16.92Q607.28-19.04 609.26-20.12Q611.24-21.20 614.16-21.20L614.16-21.20L614.16-18.44L613.48-18.48Q610.16-18.48 608.28-16.44Q606.40-14.40 606.40-10.72L606.40-10.72L606.40 0L603.56 0L603.56-21.04L606.28-21.04L606.28-16.92Z M639.44-10.52L639.40-9.64L621.80-9.64Q622.04-6.36 624.32-4.34Q626.60-2.32 630.08-2.32L630.08-2.32Q632.04-2.32 633.68-3.02Q635.32-3.72 636.52-5.08L636.52-5.08L638.12-3.24Q636.72-1.56 634.62-0.68Q632.52 0.20 630.00 0.20L630.00 0.20Q626.76 0.20 624.26-1.18Q621.76-2.56 620.36-5Q618.96-7.44 618.96-10.52L618.96-10.52Q618.96-13.60 620.30-16.04Q621.64-18.48 623.98-19.84Q626.32-21.20 629.24-21.20L629.24-21.20Q632.16-21.20 634.48-19.84Q636.80-18.48 638.12-16.06Q639.44-13.64 639.44-10.52L639.44-10.52ZM629.24-18.76Q626.20-18.76 624.14-16.82Q622.08-14.88 621.80-11.76L621.80-11.76L636.72-11.76Q636.44-14.88 634.38-16.82Q632.32-18.76 629.24-18.76L629.24-18.76Z"/></g>
</svg>
</g><g opacity="1" transform="rotate(0 -6.1188 78.1007)">
<svg width="345.5714" height="60" x="-6.1188" y="78.1007" version="1.1" preserveAspectRatio="none" viewBox="1.68 -28.88 169.56 29.44">
  <g transform="matrix(1 0 0 1 0 0)" class="companyName"><path id="id-D6z1nYkh7" d="M28.60-27.52Q27.16-27.44 26.50-27.20Q25.84-26.96 25.60-26.28Q25.36-25.60 25.36-24.08L25.36-24.08L25.36-4.24Q25.36-2.72 25.60-2.04Q25.84-1.36 26.50-1.12Q27.16-0.88 28.60-0.80L28.60-0.80L28.60 0Q26.92-0.12 23.48-0.12L23.48-0.12Q20.24-0.12 18.40 0L18.40 0L18.40-0.80Q19.84-0.88 20.50-1.12Q21.16-1.36 21.40-2.04Q21.64-2.72 21.64-4.24L21.64-4.24L21.64-13.84L8.64-13.84L8.64-4.24Q8.64-2.72 8.88-2.04Q9.12-1.36 9.78-1.12Q10.44-0.88 11.88-0.80L11.88-0.80L11.88 0Q10.04-0.12 6.80-0.12L6.80-0.12Q3.36-0.12 1.68 0L1.68 0L1.68-0.80Q3.12-0.88 3.78-1.12Q4.44-1.36 4.68-2.04Q4.92-2.72 4.92-4.24L4.92-4.24L4.92-24.08Q4.92-25.60 4.68-26.28Q4.44-26.96 3.78-27.20Q3.12-27.44 1.68-27.52L1.68-27.52L1.68-28.32Q3.36-28.20 6.80-28.20L6.80-28.20Q10-28.20 11.88-28.32L11.88-28.32L11.88-27.52Q10.44-27.44 9.78-27.20Q9.12-26.96 8.88-26.28Q8.64-25.60 8.64-24.08L8.64-24.08L8.64-14.64L21.64-14.64L21.64-24.08Q21.64-25.60 21.40-26.28Q21.16-26.96 20.50-27.20Q19.84-27.44 18.40-27.52L18.40-27.52L18.40-28.32Q20.24-28.20 23.48-28.20L23.48-28.20Q26.92-28.20 28.60-28.32L28.60-28.32L28.60-27.52Z M44.80-28.88Q48.60-28.88 51.46-27.16Q54.32-25.44 55.90-22.18Q57.48-18.92 57.48-14.40L57.48-14.40Q57.48-10 55.86-6.60Q54.24-3.20 51.34-1.32Q48.44 0.56 44.76 0.56L44.76 0.56Q40.96 0.56 38.10-1.16Q35.24-2.88 33.66-6.14Q32.08-9.40 32.08-13.92L32.08-13.92Q32.08-18.32 33.70-21.72Q35.32-25.12 38.22-27Q41.12-28.88 44.80-28.88L44.80-28.88ZM44.64-28.16Q42.08-28.16 40.14-26.38Q38.20-24.60 37.14-21.40Q36.08-18.20 36.08-14.08L36.08-14.08Q36.08-9.92 37.26-6.76Q38.44-3.60 40.44-1.88Q42.44-0.16 44.92-0.16L44.92-0.16Q47.48-0.16 49.42-1.94Q51.36-3.72 52.42-6.92Q53.48-10.12 53.48-14.24L53.48-14.24Q53.48-18.40 52.30-21.56Q51.12-24.72 49.12-26.44Q47.12-28.16 44.64-28.16L44.64-28.16Z M71-11.44L67.92-11.44L67.92-4.24Q67.92-2.72 68.24-2.04Q68.56-1.36 69.36-1.12Q70.16-0.88 71.96-0.80L71.96-0.80L71.96 0Q69.88-0.12 66.08-0.12L66.08-0.12Q62.64-0.12 60.96 0L60.96 0L60.96-0.80Q62.40-0.88 63.06-1.12Q63.72-1.36 63.96-2.04Q64.20-2.72 64.20-4.24L64.20-4.24L64.20-24.08Q64.20-25.60 63.96-26.28Q63.72-26.96 63.06-27.20Q62.40-27.44 60.96-27.52L60.96-27.52L60.96-28.32Q62.64-28.20 65.84-28.20L65.84-28.20L70.16-28.24Q70.92-28.28 71.88-28.28L71.88-28.28Q76.56-28.28 79.04-26.14Q81.52-24 81.52-20.40L81.52-20.40Q81.52-18.20 80.54-16.18Q79.56-14.16 77.22-12.80Q74.88-11.44 71-11.44L71-11.44ZM70.88-27.52Q69.64-27.52 69.02-27.24Q68.40-26.96 68.16-26.24Q67.92-25.52 67.92-24.08L67.92-24.08L67.92-12.24L70.60-12.24Q74.52-12.24 76.02-14.34Q77.52-16.44 77.52-19.96L77.52-19.96Q77.52-23.84 75.98-25.68Q74.44-27.52 70.88-27.52L70.88-27.52Z M104.84-5.12Q104.84-2.84 105.12 0L105.12 0Q102.40-0.12 95.96-0.12L95.96-0.12Q88.28-0.12 84.36 0L84.36 0L84.36-0.80Q85.80-0.88 86.46-1.12Q87.12-1.36 87.36-2.04Q87.60-2.72 87.60-4.24L87.60-4.24L87.60-24.08Q87.60-25.60 87.36-26.28Q87.12-26.96 86.46-27.20Q85.80-27.44 84.36-27.52L84.36-27.52L84.36-28.32Q88.28-28.20 95.96-28.20L95.96-28.20Q101.84-28.20 104.32-28.32L104.32-28.32Q104.04-25.68 104.04-23.60L104.04-23.60Q104.04-22.04 104.16-21.12L104.16-21.12L103.24-21.12Q102.96-23.72 102.52-24.98Q102.08-26.24 101.04-26.82Q100-27.40 97.88-27.40L97.88-27.40L94.56-27.40Q93.12-27.40 92.46-27.18Q91.80-26.96 91.56-26.28Q91.32-25.60 91.32-24.08L91.32-24.08L91.32-14.64L93.96-14.64Q95.36-14.64 96.12-15.30Q96.88-15.96 97.14-16.86Q97.40-17.76 97.56-19.12L97.56-19.12L97.68-19.92L98.60-19.92Q98.48-18.24 98.48-16.16L98.48-16.16L98.48-14.24Q98.48-12.20 98.72-8.56L98.72-8.56L97.80-8.56Q97.76-8.84 97.56-10.50Q97.36-12.16 96.46-13Q95.56-13.84 93.96-13.84L93.96-13.84L91.32-13.84L91.32-4.24Q91.32-2.72 91.56-2.04Q91.80-1.36 92.46-1.14Q93.12-0.92 94.56-0.92L94.56-0.92L97.48-0.92Q99.96-0.92 101.26-1.58Q102.56-2.24 103.16-3.70Q103.76-5.16 104.04-8L104.04-8L104.96-8Q104.84-6.92 104.84-5.12L104.84-5.12Z M129.52-28.20Q131.32-28.20 132.52-28.32L132.52-28.32L132.52-27.52Q130.52-27.04 129.36-24.04L129.36-24.04L119.96 0.20L119.64 0.20L119.32 0.20L109.56-24.96Q108.60-27.44 106.80-27.52L106.80-27.52L106.80-28.32Q108.40-28.20 111.08-28.20L111.08-28.20Q114.52-28.20 116.20-28.32L116.20-28.32L116.20-27.52Q114.68-27.44 114.02-27.14Q113.36-26.84 113.36-26.04L113.36-26.04Q113.36-25.36 113.84-24.16L113.84-24.16L121.08-4.92L127.60-21.84Q128.40-24 128.40-25.12L128.40-25.12Q128.40-26.36 127.54-26.92Q126.68-27.48 124.92-27.52L124.92-27.52L124.92-28.32Q127.20-28.20 129.52-28.20L129.52-28.20Z M144.12-28.32L144.12-27.52Q142.68-27.44 142.02-27.20Q141.36-26.96 141.12-26.28Q140.88-25.60 140.88-24.08L140.88-24.08L140.88-4.24Q140.88-2.72 141.12-2.04Q141.36-1.36 142.02-1.12Q142.68-0.88 144.12-0.80L144.12-0.80L144.12 0Q142.28-0.12 139.04-0.12L139.04-0.12Q135.60-0.12 133.92 0L133.92 0L133.92-0.80Q135.36-0.88 136.02-1.12Q136.68-1.36 136.92-2.04Q137.16-2.72 137.16-4.24L137.16-4.24L137.16-24.08Q137.16-25.60 136.92-26.28Q136.68-26.96 136.02-27.20Q135.36-27.44 133.92-27.52L133.92-27.52L133.92-28.32Q135.60-28.20 139.04-28.20L139.04-28.20Q142.24-28.20 144.12-28.32L144.12-28.32Z M168.48-3.36Q169.44-0.88 171.24-0.80L171.24-0.80L171.24 0Q169.64-0.12 166.96-0.12L166.96-0.12Q163.52-0.12 161.84 0L161.84 0L161.84-0.80Q163.36-0.88 164.02-1.18Q164.68-1.48 164.68-2.28L164.68-2.28Q164.68-2.96 164.20-4.16L164.20-4.16L161.76-10.72L152.08-10.72L150.44-6.48Q149.64-4.32 149.64-3.20L149.64-3.20Q149.64-1.96 150.50-1.40Q151.36-0.84 153.12-0.80L153.12-0.80L153.12 0Q150.84-0.12 148.52-0.12L148.52-0.12Q146.72-0.12 145.52 0L145.52 0L145.52-0.80Q147.52-1.28 148.68-4.28L148.68-4.28L158.08-28.52L158.72-28.52L168.48-3.36ZM152.40-11.52L161.44-11.52L156.96-23.48L152.40-11.52Z"/></g>
</svg>
</g></svg></svg>